<svg xmlns="http://www.w3.org/2000/svg" xmlns:xlink="http://www.w3.org/1999/xlink" version="1.1" x="0px" y="0px" viewBox="2.206 24.975 100 51.773" enable-background="new 2.206 24.975 100 51.773" xml:space="preserve" fill="#033E7C"><path d="M42.524,47.063h-2.51c0,1.899,1.056,3.907,3.924,4.313v1.336h1.566v-1.276  c2.333-0.206,3.924-1.945,3.924-4.373c0-2.522-2.399-3.829-3.924-4.273v-3.766c1.409,0.349,1.414,1.378,1.414,1.762h2.51  c0-1.896-1.058-3.906-3.924-4.313v-1.335h-1.566v1.275c-2.333,0.207-3.924,1.948-3.924,4.373c0,2.524,2.398,3.832,3.924,4.276v3.763  C42.529,48.477,42.524,47.449,42.524,47.063 M45.504,45.515c0.676,0.281,1.414,0.765,1.414,1.549c0,1.03-0.51,1.677-1.414,1.841  V45.515z M42.524,40.787c0-1.027,0.51-1.676,1.414-1.839v3.394C43.26,42.056,42.524,41.573,42.524,40.787"></path><rect x="2.206" y="26.75" width="8.333" height="30.556"></rect><path d="M100.941,45.257v-0.004c0,0-0.058-0.031-0.168-0.087c-0.103-0.058-0.206-0.115-0.317-0.16  c-2.554-1.276-14.98-7.146-27.417-7.146l0,0c-1.534,0-2.777,1.244-2.777,2.778c0,1.534,1.243,2.778,2.777,2.778  c6.944,0,12.5,4.167,12.5,4.167c-2.058,0.754-6.944,0.695-6.944,0.695h-25c-1.534,0-2.777,1.244-2.777,2.777  c0,1.534,1.243,2.778,2.777,2.778h20.834v2.083h-25c-1.534,0-2.778,1.244-2.778,2.777c0,1.534,1.244,2.778,2.778,2.778h25v2.083  H53.595c-1.534,0-2.777,1.244-2.777,2.778c0,1.533,1.243,2.777,2.777,2.777h20.834v2.083h-13.89c-1.533,0-2.777,1.244-2.777,2.778  s1.244,2.777,2.777,2.777H79.55v-0.019c11.762-0.206,16.194-4.099,21.37-7.362v-0.004c0.771-0.494,1.286-1.353,1.286-2.337V47.582  C102.206,46.608,101.701,45.753,100.941,45.257z"></path><path d="M43.873,58.692c0-1.661,0.74-3.147,1.9-4.166H23.04V33.693h4.752c1.708,1.733,3.793,3.89,5.736,5.93  c0.54,0.567,1.272,0.863,2.013,0.863c0.008-0.001,0.018-0.002,0.027,0c1.534,0,2.778-1.244,2.778-2.778  c0-0.484-0.125-0.94-0.343-1.337c-0.281-0.732-0.657-1.666-1.105-2.677h27.81v11.806h2.777V30.915H35.555  c-1.205-2.281-2.663-4.453-4.175-5.33c-0.725-0.422-1.612-0.61-2.877-0.61c-1.415,0-2.955,0.241-3.125,0.269  c-0.218,0.035-8.132,2.01-12.061,3.544v26.105c3.302,1.771,11.742,5.939,18.1,5.939h12.9C44.039,60.171,43.873,59.452,43.873,58.692  z"></path></svg>