<svg xmlns="http://www.w3.org/2000/svg" xmlns:xlink="http://www.w3.org/1999/xlink" version="1.1" x="0px" y="0px" viewBox="0 0 100 125" enable-background="new 0 0 100 100" xml:space="preserve" fill="#033E7C"><path d="M72.484,40.276L58.933,26.725c-0.473-0.478-1.316-0.478-1.794,0L20.348,63.517c-0.498,0.498-0.498,1.301,0,1.794  l13.551,13.556c0.239,0.234,0.564,0.371,0.899,0.371c0.335,0,0.661-0.137,0.899-0.371l36.786-36.791  C72.982,41.577,72.982,40.774,72.484,40.276z M34.799,76.168L23.041,64.416l7.85-7.85l5.325,5.325  c0.249,0.249,0.574,0.371,0.899,0.371s0.65-0.122,0.894-0.371c0.498-0.498,0.498-1.301,0-1.799l-5.325-5.32l6.321-6.321l5.325,5.325  c0.244,0.249,0.569,0.371,0.894,0.371c0.325,0,0.65-0.122,0.899-0.371c0.498-0.493,0.498-1.301,0-1.794l-5.325-5.325l6.321-6.316  l5.32,5.32c0.249,0.249,0.574,0.376,0.899,0.376s0.65-0.127,0.899-0.376c0.498-0.493,0.498-1.301,0-1.794l-5.325-5.325l9.125-9.12  l11.752,11.752L34.799,76.168z"/><path d="M96.751,4.257L75.706,25.308l2.942,2.942c0.142,0.142,0.224,0.335,0.224,0.539c0,0.203-0.081,0.396-0.224,0.539  l-5.589,5.589c-0.147,0.147-0.346,0.224-0.539,0.224c-0.193,0-0.391-0.076-0.539-0.224l-7.682-7.682  c-0.142-0.147-0.224-0.34-0.224-0.539c0-0.203,0.081-0.396,0.224-0.539l5.589-5.589c0.295-0.3,0.777-0.3,1.077,0l2.942,2.942  L94.953,2.463c0.498-0.498,1.301-0.498,1.799,0C97.244,2.961,97.244,3.764,96.751,4.257z"/><path d="M28.559,79.568l-3.033,3.033c-0.147,0.147-0.346,0.224-0.539,0.224c-0.193,0-0.391-0.076-0.539-0.224l-1.489-1.484  L11.665,92.412l3.328,3.328c0.498,0.498,0.498,1.301,0,1.799c-0.244,0.249-0.569,0.371-0.894,0.371s-0.65-0.122-0.899-0.371  L1.676,86.015c-0.498-0.498-0.498-1.301,0-1.799c0.493-0.498,1.301-0.498,1.794,0l3.333,3.333l11.295-11.295l-1.489-1.489  c-0.295-0.3-0.295-0.782,0-1.082l3.038-3.033c0.295-0.295,0.777-0.295,1.077,0l7.835,7.84  C28.859,78.785,28.859,79.268,28.559,79.568z"/><path d="M59.497,94.41c-3.955,0-7.172-3.217-7.172-7.172s3.218-7.172,7.172-7.172c3.955,0,7.172,3.217,7.172,7.172  S63.451,94.41,59.497,94.41z M59.497,82.098c-2.834,0-5.14,2.306-5.14,5.14s2.306,5.14,5.14,5.14c2.834,0,5.14-2.306,5.14-5.14  S62.33,82.098,59.497,82.098z"/><path d="M59.497,90.934c-0.702,0-1.27-0.569-1.27-1.27v-4.853c0-0.702,0.569-1.27,1.27-1.27s1.27,0.569,1.27,1.27v4.853  C60.767,90.366,60.198,90.934,59.497,90.934z"/><path d="M91.53,84.774c-0.112,0-0.224-0.003-0.337-0.008c-3.95-0.184-7.015-3.547-6.833-7.497c0.183-3.947,3.514-7.003,7.496-6.833  c1.914,0.089,3.678,0.917,4.969,2.333c1.291,1.416,1.952,3.25,1.864,5.164C98.512,81.769,95.367,84.774,91.53,84.774z M91.52,72.461  c-2.749,0-5.002,2.153-5.129,4.902c-0.131,2.831,2.065,5.241,4.896,5.372c2.842,0.14,5.241-2.067,5.372-4.896  c0.064-1.371-0.411-2.685-1.335-3.7c-0.925-1.015-2.19-1.609-3.561-1.672C91.682,72.463,91.601,72.461,91.52,72.461z"/><path d="M93.95,78.984c-0.02,0-0.04,0-0.06-0.001l-4.848-0.225c-0.701-0.032-1.242-0.627-1.21-1.328  c0.032-0.7,0.619-1.241,1.328-1.21l4.848,0.225c0.701,0.032,1.242,0.627,1.21,1.328C95.187,78.453,94.625,78.984,93.95,78.984z"/><path d="M75.129,71.418c-1.781,0-3.49-0.659-4.812-1.856c-2.932-2.655-3.158-7.199-0.503-10.131  c1.357-1.498,3.296-2.358,5.319-2.358c1.782,0,3.491,0.659,4.812,1.856c2.931,2.654,3.157,7.199,0.503,10.13  C79.091,70.558,77.152,71.418,75.129,71.418z M75.133,59.105c-1.45,0-2.84,0.616-3.812,1.691c-1.902,2.1-1.741,5.357,0.361,7.26  c0.947,0.857,2.171,1.33,3.448,1.33c1.45,0,2.84-0.616,3.812-1.691c1.902-2.101,1.74-5.357-0.361-7.26  C77.634,59.578,76.409,59.105,75.133,59.105z"/><path d="M76.929,67.144c-0.304,0-0.609-0.109-0.852-0.328l-3.597-3.257c-0.52-0.471-0.56-1.274-0.089-1.794  c0.471-0.52,1.274-0.559,1.794-0.089l3.597,3.257c0.52,0.471,0.56,1.274,0.089,1.794C77.621,67.003,77.276,67.144,76.929,67.144z"/></svg>