<svg xmlns="http://www.w3.org/2000/svg" xmlns:xlink="http://www.w3.org/1999/xlink" viewBox="0 0 100 125" version="1.1" xml:space="preserve" x="0px" y="0px" fill="#033E7C"><path d="M 69.4737 70.2086 L 73.1093 84.5621 L 75.6373 83.6625 L 69.4737 70.2086 ZM 41.3877 45.1307 L 27.4387 44.4019 L 27.4513 46.8921 L 41.3877 45.1307 ZM 41.8458 41.5943 L 28.1781 35.2971 L 27.3731 37.7938 L 41.8458 41.5943 ZM 33.6677 27.7865 L 31.5825 29.637 L 43.7144 38.8519 L 33.6677 27.7865 ZM 65.8519 71.2392 L 63.7692 87.2479 L 66.5313 87.1809 L 65.8519 71.2392 ZM 54.4501 84.6711 L 56.9302 86.1131 L 62.3935 70.6573 L 54.4501 84.6711 ZM 25.6743 53.1237 L 26.6031 55.315 L 21.076 56.3089 L 16.6399 54.8813 L 25.6743 53.1237 ZM 38.4906 50.6303 L 35.1718 53.7506 L 27.2852 55.1909 L 26.6113 52.9414 L 38.4906 50.6303 ZM 45.5834 69.9551 L 39.1587 68.3272 C 39.1777 68.2158 39.1757 68.0952 39.1505 67.9658 C 39.4935 63.892 36.5197 54.4916 36.5197 54.4916 C 36.4965 54.3729 36.4578 54.2685 36.4054 54.1782 L 41.7597 50.1741 C 42.2548 50.323 42.6082 50.6923 42.7162 50.928 C 46.4011 58.97 46.4287 66.3 46.2827 68.9883 C 46.2624 69.3615 45.909 69.7106 45.5834 69.9551 ZM 30.5192 73.1862 L 30.3086 70.8272 L 38.1492 69.175 L 42.4981 70.8067 L 30.5192 73.1862 ZM 20.4721 75.182 L 24.1343 72.1444 L 29.6291 70.9709 L 29.576 73.3736 L 20.4721 75.182 ZM 13.5104 55.9517 L 19.1866 57.4234 L 19.2846 57.3507 C 19.2434 57.5123 19.2367 57.6852 19.27 57.8593 C 19.27 57.8593 19.9138 64.7418 21.8596 71.3887 C 21.8956 71.5768 21.9746 71.7451 22.0844 71.8865 L 21.9486 71.8536 L 17.2719 75.2913 C 17.1156 75.2228 16.998 75.1502 16.9738 75.0802 C 14.0149 66.5148 13.4875 58.8117 13.3935 56.3423 C 13.3882 56.2038 13.4361 56.0716 13.5104 55.9517 ZM 65.7508 55.4224 L 67.1845 53.5178 L 70.8144 57.8291 L 71.7993 62.4027 L 65.7508 55.4224 ZM 57.1704 45.5199 L 61.5368 46.8459 L 66.7354 52.9865 L 65.1235 54.6984 L 57.1704 45.5199 ZM 70.3641 29.6796 L 72.1715 36.0836 C 72.0655 36.1228 71.962 36.1849 71.8625 36.2715 C 68.1604 38.0116 61.5038 45.3024 61.5038 45.3024 C 61.4125 45.382 61.3414 45.4679 61.2895 45.5587 L 55.1376 42.9041 C 55.0186 42.3988 55.1616 41.9065 55.3118 41.6947 C 60.435 34.4649 66.7732 30.7731 69.1761 29.555 C 69.5097 29.3859 69.9892 29.5186 70.3641 29.6796 ZM 80.7099 41.1686 L 78.771 42.5322 L 73.412 36.5376 L 72.6476 31.9377 L 80.7099 41.1686 ZM 87.472 48.9109 L 83.0051 47.2447 L 79.236 43.0515 L 81.3447 41.8954 L 87.472 48.9109 ZM 74.2945 64.5898 L 72.7266 58.9152 L 72.6145 58.8663 C 72.7751 58.8213 72.9284 58.7406 73.0625 58.6245 C 73.0625 58.6245 78.7043 54.6205 83.4898 49.6018 C 83.6347 49.4764 83.741 49.3234 83.8085 49.1572 L 83.8481 49.2918 L 89.1697 51.6403 C 89.1886 51.8106 89.1846 51.9492 89.136 52.0054 C 83.1955 58.8654 76.7843 63.1787 74.6914 64.4961 C 74.5741 64.5699 74.4356 64.5945 74.2945 64.5898 ZM 78.9634 71.4303 C 79.6857 72.2641 80.5466 71.9131 81.3707 71.2046 C 81.3707 71.2046 87.9703 67.3788 94.8521 59.613 C 95.6827 58.8988 96.1612 58.0964 95.4321 57.2618 L 90.1719 50.3369 L 72.8023 30.4581 L 61.84 18.8081 C 61.1253 17.9899 59.369 17.3155 58.5554 18.0316 L 51.021 23.096 L 45.3485 29.6556 C 44.5412 30.3661 44.9735 32.1959 45.6817 33.0134 L 55.6174 45.3768 L 57.3725 47.403 C 56.6998 46.9656 55.6935 46.7821 55.0019 46.9166 L 39.3875 49.3567 L 13.6247 54.3633 L 5.2838 56.5843 C 4.2048 56.7942 4.0788 57.7148 4.2795 58.7817 C 4.2795 58.7817 4.2925 66.405 7.5638 76.2371 C 7.7662 77.3126 8.22 78.1271 9.3032 77.9118 L 17.897 76.8091 L 43.6973 71.6784 L 59.2076 67.9936 C 60.2694 67.7826 61.726 66.5978 61.5135 65.5361 L 60.8976 56.4858 L 58.0644 48.3024 C 58.0543 48.2519 58.0406 48.2025 58.0235 48.1545 L 72.8607 65.2852 L 78.9634 71.4303 Z"/></svg>